<mxfile host="app.diagrams.net" modified="2022-08-04T10:24:59.244Z" agent="5.0 (Macintosh)" etag="hGC97gjyCu7KCcXebkB3" version="20.2.2" type="github">
  <diagram id="GDaDlvehyk0IUpQhXFB_" name="Page-1">
    <mxGraphModel dx="2268" dy="823" grid="0" gridSize="10" guides="1" tooltips="1" connect="1" arrows="1" fold="1" page="1" pageScale="1" pageWidth="850" pageHeight="1100" math="0" shadow="0">
      <root>
        <mxCell id="0" />
        <mxCell id="1" parent="0" />
        <mxCell id="9Rog6R5hcCI-3LM7Edof-32" value="" style="rounded=0;whiteSpace=wrap;html=1;fillColor=#0050ef;dashed=1;labelPosition=left;verticalLabelPosition=bottom;align=right;verticalAlign=top;strokeColor=#001DBC;glass=0;opacity=15;fontColor=#ffffff;" parent="1" vertex="1">
          <mxGeometry x="428" y="402" width="416" height="112" as="geometry" />
        </mxCell>
        <mxCell id="9Rog6R5hcCI-3LM7Edof-4" value="Nodes for batch jobs (free / job_busy)" style="rounded=0;whiteSpace=wrap;html=1;fillColor=none;dashed=1;labelPosition=center;verticalLabelPosition=top;align=center;verticalAlign=bottom;" parent="1" vertex="1">
          <mxGeometry x="305" y="700" width="433" height="143" as="geometry" />
        </mxCell>
        <mxCell id="9Rog6R5hcCI-3LM7Edof-22" style="edgeStyle=orthogonalEdgeStyle;rounded=0;orthogonalLoop=1;jettySize=auto;html=1;entryX=1;entryY=0.5;entryDx=0;entryDy=0;fontSize=13;startArrow=none;startFill=0;endArrow=none;endFill=0;endSize=6;strokeColor=default;strokeWidth=1;fillColor=#4D9900;exitX=0;exitY=0.5;exitDx=0;exitDy=0;" parent="1" edge="1">
          <mxGeometry relative="1" as="geometry">
            <mxPoint x="195" y="489" as="sourcePoint" />
            <mxPoint x="97.5" y="549" as="targetPoint" />
            <Array as="points">
              <mxPoint x="135" y="489" />
              <mxPoint x="135" y="549" />
            </Array>
          </mxGeometry>
        </mxCell>
        <mxCell id="9Rog6R5hcCI-3LM7Edof-23" value="Omega apps" style="edgeLabel;html=1;align=center;verticalAlign=middle;resizable=0;points=[];fontSize=13;" parent="9Rog6R5hcCI-3LM7Edof-22" vertex="1" connectable="0">
          <mxGeometry x="0.0116" y="2" relative="1" as="geometry">
            <mxPoint y="9" as="offset" />
          </mxGeometry>
        </mxCell>
        <mxCell id="5v8OR9lopXFKmn0errzr-37" style="edgeStyle=orthogonalEdgeStyle;rounded=0;orthogonalLoop=1;jettySize=auto;html=1;exitX=1;exitY=0.5;exitDx=0;exitDy=0;" edge="1" parent="1" source="qs7_fkmbpAEoLOePlhtD-3" target="9Rog6R5hcCI-3LM7Edof-32">
          <mxGeometry relative="1" as="geometry" />
        </mxCell>
        <mxCell id="qs7_fkmbpAEoLOePlhtD-3" value="Omega Cluster Manager" style="rounded=0;whiteSpace=wrap;html=1;" parent="1" vertex="1">
          <mxGeometry x="194" y="464" width="120" height="50" as="geometry" />
        </mxCell>
        <mxCell id="qs7_fkmbpAEoLOePlhtD-11" value="" style="aspect=fixed;pointerEvents=1;shadow=0;dashed=1;html=1;strokeColor=#000000;labelPosition=center;verticalLabelPosition=bottom;verticalAlign=top;align=center;fillColor=#CCCCCC;shape=mxgraph.azure.server;strokeWidth=1;rounded=0;" parent="1" vertex="1">
          <mxGeometry x="459" y="531" width="104" height="31.2" as="geometry" />
        </mxCell>
        <mxCell id="qs7_fkmbpAEoLOePlhtD-34" value="" style="aspect=fixed;pointerEvents=1;shadow=0;dashed=1;html=1;strokeColor=#000000;labelPosition=center;verticalLabelPosition=bottom;verticalAlign=top;align=center;fillColor=#CCCCCC;shape=mxgraph.azure.server;strokeWidth=1;rounded=0;" parent="1" vertex="1">
          <mxGeometry x="574" y="531" width="104" height="31.2" as="geometry" />
        </mxCell>
        <mxCell id="qs7_fkmbpAEoLOePlhtD-35" value="" style="aspect=fixed;pointerEvents=1;shadow=0;dashed=1;html=1;strokeColor=#000000;labelPosition=center;verticalLabelPosition=bottom;verticalAlign=top;align=center;fillColor=#CCCCCC;shape=mxgraph.azure.server;strokeWidth=1;rounded=0;" parent="1" vertex="1">
          <mxGeometry x="696" y="530" width="104" height="31.2" as="geometry" />
        </mxCell>
        <mxCell id="qs7_fkmbpAEoLOePlhtD-36" value="" style="aspect=fixed;pointerEvents=1;shadow=0;dashed=1;html=1;strokeColor=#000000;labelPosition=center;verticalLabelPosition=bottom;verticalAlign=top;align=center;fillColor=#CCCCCC;shape=mxgraph.azure.server;strokeWidth=1;rounded=0;" parent="1" vertex="1">
          <mxGeometry x="459" y="581" width="104" height="31.2" as="geometry" />
        </mxCell>
        <mxCell id="qs7_fkmbpAEoLOePlhtD-37" value="" style="aspect=fixed;pointerEvents=1;shadow=0;dashed=1;html=1;strokeColor=#000000;labelPosition=center;verticalLabelPosition=bottom;verticalAlign=top;align=center;fillColor=#CCCCCC;shape=mxgraph.azure.server;strokeWidth=1;rounded=0;" parent="1" vertex="1">
          <mxGeometry x="574" y="581" width="104" height="31.2" as="geometry" />
        </mxCell>
        <mxCell id="qs7_fkmbpAEoLOePlhtD-38" value="" style="aspect=fixed;pointerEvents=1;shadow=0;dashed=1;html=1;strokeColor=#000000;labelPosition=center;verticalLabelPosition=bottom;verticalAlign=top;align=center;fillColor=#CCCCCC;shape=mxgraph.azure.server;strokeWidth=1;rounded=0;" parent="1" vertex="1">
          <mxGeometry x="696" y="580" width="104" height="31.2" as="geometry" />
        </mxCell>
        <mxCell id="9Rog6R5hcCI-3LM7Edof-6" style="edgeStyle=orthogonalEdgeStyle;rounded=0;orthogonalLoop=1;jettySize=auto;html=1;exitX=1;exitY=0.5;exitDx=0;exitDy=0;startArrow=classicThin;startFill=1;endArrow=none;endFill=0;" parent="1" source="qs7_fkmbpAEoLOePlhtD-50" edge="1">
          <mxGeometry relative="1" as="geometry">
            <mxPoint x="314" y="745" as="targetPoint" />
          </mxGeometry>
        </mxCell>
        <mxCell id="qs7_fkmbpAEoLOePlhtD-50" value="PBS Pro Server" style="rounded=0;whiteSpace=wrap;html=1;shadow=0;strokeWidth=1;" parent="1" vertex="1">
          <mxGeometry x="164" y="730" width="120" height="30" as="geometry" />
        </mxCell>
        <mxCell id="qs7_fkmbpAEoLOePlhtD-52" value="PBS Pro Scheduler" style="rounded=0;whiteSpace=wrap;html=1;shadow=0;strokeWidth=1;" parent="1" vertex="1">
          <mxGeometry x="164" y="765" width="120" height="30" as="geometry" />
        </mxCell>
        <mxCell id="qs7_fkmbpAEoLOePlhtD-65" value="" style="aspect=fixed;pointerEvents=1;shadow=0;dashed=0;html=1;strokeColor=none;labelPosition=center;verticalLabelPosition=bottom;verticalAlign=top;align=center;fillColor=#00188D;shape=mxgraph.azure.server;rounded=0;" parent="1" vertex="1">
          <mxGeometry x="320" y="803" width="119.75" height="35.93" as="geometry" />
        </mxCell>
        <mxCell id="qs7_fkmbpAEoLOePlhtD-66" value="pbs_mom" style="rounded=0;whiteSpace=wrap;html=1;" parent="1" vertex="1">
          <mxGeometry x="323" y="780" width="111" height="20" as="geometry" />
        </mxCell>
        <mxCell id="9Rog6R5hcCI-3LM7Edof-2" value="Loaned nodes to K8s (job_exclusive)" style="rounded=0;whiteSpace=wrap;html=1;fillColor=none;dashed=1;labelPosition=center;verticalLabelPosition=bottom;align=center;verticalAlign=top;" parent="1" vertex="1">
          <mxGeometry x="796" y="1001" width="373.75" height="60" as="geometry" />
        </mxCell>
        <mxCell id="9Rog6R5hcCI-3LM7Edof-7" value="Un-shared nodes" style="rounded=0;whiteSpace=wrap;html=1;fillColor=none;dashed=1;labelPosition=center;verticalLabelPosition=bottom;align=center;verticalAlign=top;" parent="1" vertex="1">
          <mxGeometry x="427" y="523" width="417" height="100" as="geometry" />
        </mxCell>
        <mxCell id="9Rog6R5hcCI-3LM7Edof-8" value="Grow&amp;nbsp; &amp;amp; Shrink" style="shape=flexArrow;endArrow=classic;startArrow=classic;html=1;rounded=0;endSize=6;strokeWidth=1;strokeColor=default;fillColor=#4D9900;" parent="1" edge="1">
          <mxGeometry width="100" height="100" relative="1" as="geometry">
            <mxPoint x="884" y="445" as="sourcePoint" />
            <mxPoint x="884" y="605.5" as="targetPoint" />
          </mxGeometry>
        </mxCell>
        <mxCell id="9Rog6R5hcCI-3LM7Edof-10" value="Grow&amp;nbsp; &amp;amp; Shrink" style="shape=flexArrow;endArrow=classic;startArrow=classic;html=1;rounded=0;endSize=6;strokeWidth=1;strokeColor=default;fillColor=#4D9900;" parent="1" edge="1">
          <mxGeometry width="100" height="100" relative="1" as="geometry">
            <mxPoint x="789" y="703.5" as="sourcePoint" />
            <mxPoint x="789" y="883" as="targetPoint" />
          </mxGeometry>
        </mxCell>
        <mxCell id="9Rog6R5hcCI-3LM7Edof-14" value="" style="html=1;dashed=0;whitespace=wrap;fillColor=#2875E2;strokeColor=#ffffff;points=[[0.005,0.63,0],[0.1,0.2,0],[0.9,0.2,0],[0.5,0,0],[0.995,0.63,0],[0.72,0.99,0],[0.5,1,0],[0.28,0.99,0]];shape=mxgraph.kubernetes.icon;prIcon=user;rounded=0;" parent="1" vertex="1">
          <mxGeometry x="21" y="473" width="48.5" height="54" as="geometry" />
        </mxCell>
        <mxCell id="9Rog6R5hcCI-3LM7Edof-26" style="edgeStyle=orthogonalEdgeStyle;orthogonalLoop=1;jettySize=auto;html=1;fontSize=13;startArrow=none;startFill=0;endArrow=none;endFill=0;endSize=6;strokeColor=default;strokeWidth=1;fillColor=#4D9900;rounded=0;entryX=0;entryY=0.25;entryDx=0;entryDy=0;" parent="1" target="qs7_fkmbpAEoLOePlhtD-50" edge="1">
          <mxGeometry relative="1" as="geometry">
            <mxPoint x="67.5" y="549" as="sourcePoint" />
            <mxPoint x="135" y="720" as="targetPoint" />
          </mxGeometry>
        </mxCell>
        <mxCell id="9Rog6R5hcCI-3LM7Edof-27" value="&amp;lt; pbs commands &amp;gt;" style="edgeLabel;html=1;align=center;verticalAlign=middle;resizable=0;points=[];fontSize=13;" parent="9Rog6R5hcCI-3LM7Edof-26" vertex="1" connectable="0">
          <mxGeometry x="-0.1044" relative="1" as="geometry">
            <mxPoint y="28" as="offset" />
          </mxGeometry>
        </mxCell>
        <mxCell id="9Rog6R5hcCI-3LM7Edof-21" value="Login Node / Legacy Apps" style="rounded=1;whiteSpace=wrap;html=1;fillColor=#e51400;glass=0;strokeColor=#B20000;fontColor=#ffffff;" parent="1" vertex="1">
          <mxGeometry x="-6" y="524" width="102.5" height="50" as="geometry" />
        </mxCell>
        <mxCell id="9Rog6R5hcCI-3LM7Edof-31" value="" style="rounded=0;whiteSpace=wrap;html=1;fillColor=#ffcd28;dashed=1;labelPosition=left;verticalLabelPosition=bottom;align=right;verticalAlign=top;strokeColor=#d79b00;glass=0;opacity=12;gradientColor=#ffa500;" parent="1" vertex="1">
          <mxGeometry x="837" y="830" width="396" height="270" as="geometry" />
        </mxCell>
        <mxCell id="5v8OR9lopXFKmn0errzr-1" value="&lt;div&gt;pbs_mom&lt;/div&gt;" style="rounded=1;whiteSpace=wrap;html=1;sketch=0;glass=0;fillStyle=auto;gradientColor=none;" vertex="1" parent="1">
          <mxGeometry x="320" y="886" width="123" height="19" as="geometry" />
        </mxCell>
        <mxCell id="5v8OR9lopXFKmn0errzr-2" value="ocm_node_controller" style="rounded=1;whiteSpace=wrap;html=1;sketch=0;glass=0;fillStyle=auto;gradientColor=none;" vertex="1" parent="1">
          <mxGeometry x="320.75" y="864" width="123" height="19" as="geometry" />
        </mxCell>
        <mxCell id="5v8OR9lopXFKmn0errzr-3" value="" style="aspect=fixed;pointerEvents=1;shadow=0;dashed=1;html=1;strokeColor=#000000;labelPosition=center;verticalLabelPosition=bottom;verticalAlign=top;align=center;fillColor=#CCCCCC;shape=mxgraph.azure.server;strokeWidth=1;rounded=0;" vertex="1" parent="1">
          <mxGeometry x="320.62" y="908" width="126.13" height="37.83" as="geometry" />
        </mxCell>
        <mxCell id="5v8OR9lopXFKmn0errzr-4" value="&lt;div&gt;pbs_mom&lt;/div&gt;" style="rounded=1;whiteSpace=wrap;html=1;sketch=0;glass=0;fillStyle=auto;gradientColor=none;" vertex="1" parent="1">
          <mxGeometry x="455.75" y="888.08" width="123" height="19" as="geometry" />
        </mxCell>
        <mxCell id="5v8OR9lopXFKmn0errzr-5" value="ocm_node_controller" style="rounded=1;whiteSpace=wrap;html=1;sketch=0;glass=0;fillStyle=auto;gradientColor=none;" vertex="1" parent="1">
          <mxGeometry x="456.5" y="866.08" width="123" height="19" as="geometry" />
        </mxCell>
        <mxCell id="5v8OR9lopXFKmn0errzr-6" value="" style="aspect=fixed;pointerEvents=1;shadow=0;dashed=1;html=1;strokeColor=#000000;labelPosition=center;verticalLabelPosition=bottom;verticalAlign=top;align=center;fillColor=#CCCCCC;shape=mxgraph.azure.server;strokeWidth=1;rounded=0;" vertex="1" parent="1">
          <mxGeometry x="456.37" y="910.0799999999999" width="126.13" height="37.83" as="geometry" />
        </mxCell>
        <mxCell id="5v8OR9lopXFKmn0errzr-7" value="&lt;div&gt;pbs_mom&lt;/div&gt;" style="rounded=1;whiteSpace=wrap;html=1;sketch=0;glass=0;fillStyle=auto;gradientColor=none;" vertex="1" parent="1">
          <mxGeometry x="593.75" y="886" width="123" height="19" as="geometry" />
        </mxCell>
        <mxCell id="5v8OR9lopXFKmn0errzr-8" value="ocm_node_controller" style="rounded=1;whiteSpace=wrap;html=1;sketch=0;glass=0;fillStyle=auto;gradientColor=none;" vertex="1" parent="1">
          <mxGeometry x="594.5" y="864" width="123" height="19" as="geometry" />
        </mxCell>
        <mxCell id="5v8OR9lopXFKmn0errzr-9" value="" style="aspect=fixed;pointerEvents=1;shadow=0;dashed=1;html=1;strokeColor=#000000;labelPosition=center;verticalLabelPosition=bottom;verticalAlign=top;align=center;fillColor=#CCCCCC;shape=mxgraph.azure.server;strokeWidth=1;rounded=0;" vertex="1" parent="1">
          <mxGeometry x="594.37" y="908" width="126.13" height="37.83" as="geometry" />
        </mxCell>
        <mxCell id="5v8OR9lopXFKmn0errzr-10" value="" style="aspect=fixed;pointerEvents=1;shadow=0;dashed=0;html=1;strokeColor=none;labelPosition=center;verticalLabelPosition=bottom;verticalAlign=top;align=center;fillColor=#00188D;shape=mxgraph.azure.server;rounded=0;" vertex="1" parent="1">
          <mxGeometry x="459" y="803" width="119.75" height="35.93" as="geometry" />
        </mxCell>
        <mxCell id="5v8OR9lopXFKmn0errzr-11" value="" style="aspect=fixed;pointerEvents=1;shadow=0;dashed=0;html=1;strokeColor=none;labelPosition=center;verticalLabelPosition=bottom;verticalAlign=top;align=center;fillColor=#00188D;shape=mxgraph.azure.server;rounded=0;" vertex="1" parent="1">
          <mxGeometry x="593.75" y="803.07" width="119.75" height="35.93" as="geometry" />
        </mxCell>
        <mxCell id="5v8OR9lopXFKmn0errzr-12" value="pbs_mom" style="rounded=0;whiteSpace=wrap;html=1;" vertex="1" parent="1">
          <mxGeometry x="466" y="780" width="111" height="20" as="geometry" />
        </mxCell>
        <mxCell id="5v8OR9lopXFKmn0errzr-13" value="pbs_mom" style="rounded=0;whiteSpace=wrap;html=1;" vertex="1" parent="1">
          <mxGeometry x="598.13" y="780" width="111" height="20" as="geometry" />
        </mxCell>
        <mxCell id="5v8OR9lopXFKmn0errzr-14" value="" style="aspect=fixed;pointerEvents=1;shadow=0;dashed=0;html=1;strokeColor=none;labelPosition=center;verticalLabelPosition=bottom;verticalAlign=top;align=center;fillColor=#00188D;shape=mxgraph.azure.server;rounded=0;" vertex="1" parent="1">
          <mxGeometry x="320" y="736" width="119.75" height="35.93" as="geometry" />
        </mxCell>
        <mxCell id="5v8OR9lopXFKmn0errzr-15" value="pbs_mom" style="rounded=0;whiteSpace=wrap;html=1;" vertex="1" parent="1">
          <mxGeometry x="323" y="713" width="111" height="20" as="geometry" />
        </mxCell>
        <mxCell id="5v8OR9lopXFKmn0errzr-16" value="pbs_mom" style="rounded=0;whiteSpace=wrap;html=1;" vertex="1" parent="1">
          <mxGeometry x="466" y="713" width="111" height="20" as="geometry" />
        </mxCell>
        <mxCell id="5v8OR9lopXFKmn0errzr-17" value="" style="aspect=fixed;pointerEvents=1;shadow=0;dashed=0;html=1;strokeColor=none;labelPosition=center;verticalLabelPosition=bottom;verticalAlign=top;align=center;fillColor=#00188D;shape=mxgraph.azure.server;rounded=0;" vertex="1" parent="1">
          <mxGeometry x="459" y="736" width="119.75" height="35.93" as="geometry" />
        </mxCell>
        <mxCell id="5v8OR9lopXFKmn0errzr-18" value="pbs_mom" style="rounded=0;whiteSpace=wrap;html=1;" vertex="1" parent="1">
          <mxGeometry x="598.13" y="713" width="111" height="20" as="geometry" />
        </mxCell>
        <mxCell id="5v8OR9lopXFKmn0errzr-19" value="" style="aspect=fixed;pointerEvents=1;shadow=0;dashed=0;html=1;strokeColor=none;labelPosition=center;verticalLabelPosition=bottom;verticalAlign=top;align=center;fillColor=#00188D;shape=mxgraph.azure.server;rounded=0;" vertex="1" parent="1">
          <mxGeometry x="593.75" y="736.07" width="119.75" height="35.93" as="geometry" />
        </mxCell>
        <mxCell id="5v8OR9lopXFKmn0errzr-22" value="" style="edgeStyle=orthogonalEdgeStyle;rounded=0;orthogonalLoop=1;jettySize=auto;html=1;" edge="1" parent="1" source="5v8OR9lopXFKmn0errzr-21" target="qs7_fkmbpAEoLOePlhtD-50">
          <mxGeometry relative="1" as="geometry" />
        </mxCell>
        <mxCell id="5v8OR9lopXFKmn0errzr-23" style="edgeStyle=orthogonalEdgeStyle;rounded=0;orthogonalLoop=1;jettySize=auto;html=1;exitX=0.5;exitY=0;exitDx=0;exitDy=0;entryX=0.5;entryY=1;entryDx=0;entryDy=0;" edge="1" parent="1" source="5v8OR9lopXFKmn0errzr-21" target="qs7_fkmbpAEoLOePlhtD-3">
          <mxGeometry relative="1" as="geometry" />
        </mxCell>
        <mxCell id="5v8OR9lopXFKmn0errzr-21" value="&lt;div&gt;cluster sharing daemon service &lt;br&gt;&lt;/div&gt;&lt;div&gt;[python]&lt;br&gt;&lt;/div&gt;" style="rounded=0;whiteSpace=wrap;html=1;fillColor=#dae8fc;strokeColor=#6c8ebf;" vertex="1" parent="1">
          <mxGeometry x="173.5" y="583" width="161" height="55" as="geometry" />
        </mxCell>
        <mxCell id="5v8OR9lopXFKmn0errzr-24" value="&lt;div&gt;pbs_mom&lt;/div&gt;" style="rounded=1;whiteSpace=wrap;html=1;sketch=0;glass=0;fillStyle=auto;gradientColor=none;" vertex="1" parent="1">
          <mxGeometry x="435.25" y="445" width="123" height="19" as="geometry" />
        </mxCell>
        <mxCell id="5v8OR9lopXFKmn0errzr-25" value="ocm_node_controller" style="rounded=1;whiteSpace=wrap;html=1;sketch=0;glass=0;fillStyle=auto;gradientColor=none;" vertex="1" parent="1">
          <mxGeometry x="436" y="423" width="123" height="19" as="geometry" />
        </mxCell>
        <mxCell id="5v8OR9lopXFKmn0errzr-27" value="&lt;div&gt;pbs_mom&lt;/div&gt;" style="rounded=1;whiteSpace=wrap;html=1;sketch=0;glass=0;fillStyle=auto;gradientColor=none;" vertex="1" parent="1">
          <mxGeometry x="571" y="447.08000000000004" width="123" height="19" as="geometry" />
        </mxCell>
        <mxCell id="5v8OR9lopXFKmn0errzr-28" value="ocm_node_controller" style="rounded=1;whiteSpace=wrap;html=1;sketch=0;glass=0;fillStyle=auto;gradientColor=none;" vertex="1" parent="1">
          <mxGeometry x="571.75" y="425.08000000000004" width="123" height="19" as="geometry" />
        </mxCell>
        <mxCell id="5v8OR9lopXFKmn0errzr-30" value="&lt;div&gt;pbs_mom&lt;/div&gt;" style="rounded=1;whiteSpace=wrap;html=1;sketch=0;glass=0;fillStyle=auto;gradientColor=none;" vertex="1" parent="1">
          <mxGeometry x="709" y="445" width="123" height="19" as="geometry" />
        </mxCell>
        <mxCell id="5v8OR9lopXFKmn0errzr-31" value="ocm_node_controller" style="rounded=1;whiteSpace=wrap;html=1;sketch=0;glass=0;fillStyle=auto;gradientColor=none;" vertex="1" parent="1">
          <mxGeometry x="709.75" y="423" width="123" height="19" as="geometry" />
        </mxCell>
        <mxCell id="5v8OR9lopXFKmn0errzr-33" value="" style="aspect=fixed;pointerEvents=1;shadow=0;dashed=0;html=1;strokeColor=none;labelPosition=center;verticalLabelPosition=bottom;verticalAlign=top;align=center;fillColor=#00188D;shape=mxgraph.azure.server;rounded=0;" vertex="1" parent="1">
          <mxGeometry x="436" y="469" width="119.75" height="35.93" as="geometry" />
        </mxCell>
        <mxCell id="5v8OR9lopXFKmn0errzr-34" value="" style="aspect=fixed;pointerEvents=1;shadow=0;dashed=0;html=1;strokeColor=none;labelPosition=center;verticalLabelPosition=bottom;verticalAlign=top;align=center;fillColor=#00188D;shape=mxgraph.azure.server;rounded=0;" vertex="1" parent="1">
          <mxGeometry x="575" y="469" width="119.75" height="35.93" as="geometry" />
        </mxCell>
        <mxCell id="5v8OR9lopXFKmn0errzr-35" value="" style="aspect=fixed;pointerEvents=1;shadow=0;dashed=0;html=1;strokeColor=none;labelPosition=center;verticalLabelPosition=bottom;verticalAlign=top;align=center;fillColor=#00188D;shape=mxgraph.azure.server;rounded=0;" vertex="1" parent="1">
          <mxGeometry x="709.75" y="469.07000000000005" width="119.75" height="35.93" as="geometry" />
        </mxCell>
      </root>
    </mxGraphModel>
  </diagram>
</mxfile>
